<?xml version="1.0" ?><!DOCTYPE svg  PUBLIC '-//W3C//DTD SVG 1.1//EN'  'http://www.w3.org/Graphics/SVG/1.1/DTD/svg11.dtd'><svg height="512px" style="enable-background:new 0 0 512 512;" version="1.1" viewBox="0 0 512 512" width="512px" xml:space="preserve" xmlns="http://www.w3.org/2000/svg" xmlns:xlink="http://www.w3.org/1999/xlink"><g id="pencil_x2C__school_x2C__work"><g><path d="M256.028,495.463c131.841,0,239.403-107.569,239.403-239.463    S387.869,16.537,256.028,16.537c-131.894,0-239.46,107.569-239.46,239.463S124.135,495.463,256.028,495.463L256.028,495.463z" style="fill-rule:evenodd;clip-rule:evenodd;fill:#1C1C1C;"/><path d="M292.406,492.716c-11.883,1.795-24.047,2.747-36.378,2.747    c-132.231,0-239.46-107.231-239.46-239.463c0-24.944,3.81-49.047,10.93-71.638l128.081-78.25l13.679,12.333l79.371-36.66    L292.406,492.716z" style="fill-rule:evenodd;clip-rule:evenodd;fill:#0A0A0A;"/><path d="M247.115,81.785c2.971,19.058,6.056,38.341,9.025,57.399    c6.223,2.578,12.5,2.689,18.779,0L247.115,81.785z" style="fill-rule:evenodd;clip-rule:evenodd;fill:#C5C5C5;"/><path d="M247.115,81.785c-2.971,19.058-6.67,38.341-9.641,57.399    c-6.055,2.746-12.276,2.746-18.273,0L247.115,81.785z" style="fill-rule:evenodd;clip-rule:evenodd;fill:#ABABAB;"/><path d="M247.115,81.785c-2.971,19.058-6.727,38.452-9.696,57.456    c6.501,2.689,11.153,2.913,18.778,0L247.115,81.785z" style="fill-rule:evenodd;clip-rule:evenodd;fill:#B9B9B9;"/><polygon points="247.115,81.785 235.959,104.767 258.215,104.767       " style="fill-rule:evenodd;clip-rule:evenodd;fill:#202020;"/><path d="M243.249,104.767h7.51l-3.644-22.981    C245.098,85.876,244.145,99.61,243.249,104.767L243.249,104.767z" style="fill-rule:evenodd;clip-rule:evenodd;fill:#3F3F3F;"/><polygon points="247.115,81.785 250.759,104.767 258.215,104.767       " style="fill-rule:evenodd;clip-rule:evenodd;fill:#585858;"/><path d="M274.975,138.904c-6.838,2.802-13.172,2.296-18.777,0.111    v-0.111c-6.67,3.083-12.892,2.746-18.612,0c-5.66,2.521-11.77,2.578-18.33,0v353.698c11.999,1.852,24.272,2.86,36.773,2.86    c6.392,0,12.669-0.282,18.946-0.786V138.904z" style="fill-rule:evenodd;clip-rule:evenodd;fill:#848484;"/><path d="M256.197,138.904c-6.504,2.858-12.67,2.746-18.556,0    c-5.661,2.578-11.771,2.635-18.387,0v353.698c11.999,1.852,24.272,2.86,36.773,2.86l0.169-0.057V138.904z" style="fill-rule:evenodd;clip-rule:evenodd;fill:#666666;"/><path d="M237.531,138.904c-6.391,2.858-12.446,2.296-18.276,0v353.698    c6,0.955,12.108,1.683,18.276,2.131V138.904z" style="fill-rule:evenodd;clip-rule:evenodd;fill:#414141;"/><path d="M155.579,106.112c10.091,16.368,20.461,33.015,30.549,49.384    c6.729,0,12.557-2.354,17.321-7.287L155.579,106.112z" style="fill-rule:evenodd;clip-rule:evenodd;fill:#C5C5C5;"/><path d="M155.579,106.112c4.652,18.666,8.744,37.893,13.34,56.614    c-4.482,4.876-10.2,7.287-16.813,7.063L155.579,106.112z" style="fill-rule:evenodd;clip-rule:evenodd;fill:#ABABAB;"/><path d="M155.579,106.112c4.652,18.666,8.688,38.005,13.34,56.671    c7.064,0,11.438-1.626,17.325-7.231L155.579,106.112z" style="fill-rule:evenodd;clip-rule:evenodd;fill:#B9B9B9;"/><polygon points="155.579,106.112 154.179,131.617 174.75,122.984       " style="fill-rule:evenodd;clip-rule:evenodd;fill:#202020;"/><path d="M160.905,128.759l6.896-2.916l-12.222-19.73    C155.357,110.652,159.728,123.656,160.905,128.759L160.905,128.759z" style="fill-rule:evenodd;clip-rule:evenodd;fill:#3F3F3F;"/><polygon points="155.579,106.112 167.801,125.843 174.75,122.984       " style="fill-rule:evenodd;clip-rule:evenodd;fill:#585858;"/><path d="M203.394,147.984c-5.213,5.214-11.267,7.175-17.266,7.344    v-0.112c-5.044,5.437-10.817,7.511-17.209,7.23c-4.258,4.541-9.806,6.95-16.87,7.118l136.098,323.712    c19-2.525,37.277-7.287,54.596-14.017L203.394,147.984z" style="fill-rule:evenodd;clip-rule:evenodd;fill:#848484;"/><path d="M186.128,155.216c-4.931,5.156-10.648,7.399-17.152,7.23    c-4.204,4.541-9.806,6.95-16.927,7.118l136.098,323.712c12.613-1.683,24.887-4.374,36.773-7.904L186.128,155.216z" style="fill-rule:evenodd;clip-rule:evenodd;fill:#666666;"/><path d="M168.863,162.446c-4.763,5.101-10.536,6.95-16.814,7.118    l136.098,323.712c6.277-0.84,12.387-1.905,18.5-3.195L168.863,162.446z" style="fill-rule:evenodd;clip-rule:evenodd;fill:#414141;"/></g></g><g id="Layer_1"/></svg>